# xmcd CD database file
#
# Track frame offsets:
#	150
#	11307
#	20570
#	31278
#	43100
#	54241
#	64346
#	76008
#	85256
#	96039
#	108824
#	118011
#	129125
#	141138
#	152968
#	164231
#	172157
#	182944
#	192746
#	205952
#	227955
#	248527
#	275110
#	289097
#	307831
#	322076
#	336237
#
# Disc length: 4796 seconds
#
# Revision: 0
# Processed by: cddbd v1.5.2PL0 Copyright (c) Steve Scherf et al.
# Submitted via: CDex 1.70beta2
#
DISCID=8612ba1b
DTITLE=Emil Richards - Stones - Journey To Bliss
DYEAR=1967
DGENRE=Jazz
TTITLE0=01_Garnet (January)
TTITLE1=02_Amethyst (February)
TTITLE2=03_Bloodstone ( March)
TTITLE3=04_Diamond ( April)
TTITLE4=05_Emerald ( May )
TTITLE5=06_moonstone ( June )
TTITLE6=07_Ruby ( July )
TTITLE7=08_Sardonyx ( August )
TTITLE8=09_Sapphire ( September )
TTITLE9=10_Opal ( October )
TTITLE10=11_Topaz ( November )
TTITLE11=12_Turquoise (December)
TTITLE12=13_Georgy Girl
TTITLE13=14_Happy Together
TTITLE14=15_Hot Fudge Sundae
TTITLE15=16_Jimmy
TTITLE16=17_Havah Nagila
TTITLE17=18_Blues For Hari
TTITLE18=19_Maharimba
TTITLE19=20_Bliss
TTITLE20=21_Mantra
TTITLE21=22_Enjoy, Enjoy
TTITLE22=23_Journey To Bliss ( Part One )
TTITLE23=24_Journey To Bliss ( Part Two )
TTITLE24=25_Journey To Bliss ( Part Three )
TTITLE25=26_Journey To Bliss ( Part Four )
TTITLE26=27_Journey To Bliss ( Part Five and Six)
EXTD=YEAR: 1967
EXTT0=
EXTT1=
EXTT2=
EXTT3=
EXTT4=
EXTT5=
EXTT6=
EXTT7=
EXTT8=
EXTT9=
EXTT10=
EXTT11=
EXTT12=
EXTT13=
EXTT14=
EXTT15=
EXTT16=
EXTT17=
EXTT18=
EXTT19=
EXTT20=
EXTT21=
EXTT22=
EXTT23=
EXTT24=
EXTT25=
EXTT26=
PLAYORDER=
